{"title":"800 Words - S02E07-08","uid":15962612,"size":717233341,"categoryP":"video","categoryS":"tv_shows","magnet":"?xt=urn:btih:804d83eb5fd82dae758a63460c2549f3fa9781f2&amp;dn=800+Words+-+S02E07-08&amp;tr=udp%3A%2F%2Ftracker.leechers-paradise.org%3A6969&amp;tr=udp%3A%2F%2Fzer0day.ch%3A1337&amp;tr=udp%3A%2F%2Fopen.demonii.com%3A1337&amp;tr=udp%3A%2F%2Ftracker.coppersurfer.tk%3A6969&amp;tr=udp%3A%2F%2Fexodus.desync.com%3A6969","seeders":15,"leechers":12,"uploader":"Bullrout","files":1,"time":1475686710,"description":"800 Words - S02E07-08\r\n\r\nLaura's one year anniversary approaches. George and the family prepare to leave for Sydney. Shay gets the blame for Ike staying in Weld and Arlo gets serious with Emma.\r\n\r\n\r\nComplete name                            : 800 Words - S02E07-E08.mp4\r\nFormat                                   : MPEG-4\r\nFormat profile                           : Base Media / Version 2\r\nCodec ID                                 : mp42 (mp42/isom/avc1)\r\nFile size                                : 684 MiB\r\nDuration                                 : 1 h 26 min\r\nOverall bit rate mode                    : Variable\r\nOverall bit rate                         : 1 110 kb/s\r\n\r\nVideo\r\nID                                       : 2\r\nFormat                                   : AVC\r\nFormat/Info                              : Advanced Video Codec\r\nFormat profile                           :   \r\nFormat settings, CABAC                   : Yes\r\nFormat settings, ReFrames                : 3 frames\r\nCodec ID                                 : avc1\r\nCodec ID/Info                            : Advanced Video Coding\r\nDuration                                 : 1 h 26 min\r\nBit rate mode                            : Variable\r\nBit rate                                 : 979 kb/s\r\nMaximum bit rate                         : 1 000 kb/s\r\nWidth                                    : 720 pixels\r\nHeight                                   : 404 pixels\r\nDisplay aspect ratio                     : 16:9\r\nOriginal display aspect ratio            : 16:9\r\nFrame rate mode                          : Constant\r\nFrame rate                               : 25.000 FPS\r\nStandard                                 : PAL\r\nColor space                              : YUV\r\nChroma subsampling                       : 4:2:0\r\nBit depth                                : 8 bits\r\nScan type                                : Progressive\r\nBits/(Pixel*Frame)                       : 0.135\r\nStream size                              : 603 MiB (88%)\r\nWriting library                          : x264 core 112\r\nColor range                              : Limited\r\nColor primaries                          : BT.601 PAL\r\nTransfer characteristics                 : BT.470 System B, BT.470 System G\r\nMatrix coefficients                      : BT.601\r\n\r\nAudio\r\nID                                       : 1\r\nFormat                                   : AAC\r\nFormat/Info                              : Advanced Audio Codec\r\nFormat profile                           : LC\r\nCodec ID                                 : 40\r\nDuration                                 : 1 h 26 min\r\nBit rate mode                            : Variable\r\nBit rate                                 : 128 kb/s\r\nMaximum bit rate                         : 576 kb/s\r\nChannel(s)                               : 2 channels\r\nChannel positions                        : Front: L R\r\nSampling rate                            : 48.0 kHz\r\nFrame rate                               : 46.875 FPS (1024 spf)\r\nCompression mode                         : Lossy\r\nStream size                              : 78.9 MiB (12%)","torrent":{"xt":"urn:btih:804d83eb5fd82dae758a63460c2549f3fa9781f2","amp;dn":"800+Words+-+S02E07-08","amp;tr":["udp%3A%2F%2Ftracker.leechers-paradise.org%3A6969","udp%3A%2F%2Fzer0day.ch%3A1337","udp%3A%2F%2Fopen.demonii.com%3A1337","udp%3A%2F%2Ftracker.coppersurfer.tk%3A6969","udp%3A%2F%2Fexodus.desync.com%3A6969"],"infoHash":"804d83eb5fd82dae758a63460c2549f3fa9781f2","infoHashBuffer":{"type":"Buffer","data":[128,77,131,235,95,216,45,174,117,138,99,70,12,37,73,243,250,151,129,242]},"announce":[],"urlList":[]}}